PathFileType	4	(X/Y/Z)	Static.trc																																																																									
DataRate	CameraRate	NumFrames	NumMarkers	Units	OrigDataRate	OrigDataStartFrame	OrigNumFrames																																																																					
100	100	12	25	mm	100	354	473																																																																					
Frame#	Time	AA			AI			Ant_Sh			CV7			GH			LAH			Lat_Sh			LCAJ			LPH			Post_Sh			RAH			RCAJ			RHLE			RHME			RPH			RUA			SJN			SXS			TS			TV8			centelbow			centpxt8			centijc7			centLPHRPH			ScapulaThoracicContactPt		
		X1	Y1	Z1	X2	Y2	Z2	X3	Y3	Z3	X4	Y4	Z4	X5	Y5	Z5	X6	Y6	Z6	X7	Y7	Z7	X8	Y8	Z8	X9	Y9	Z9	X10	Y10	Z10	X11	Y11	Z11	X12	Y12	Z12	X13	Y13	Z13	X14	Y14	Z14	X15	Y15	Z15	X16	Y16	Z16	X17	Y17	Z17	X18	Y18	Z18	X19	Y19	Z19	X20	Y20	Z20	X21	Y21	Z21	X22	Y22	Z22	X23	Y23	Z23	X24	Y24	Z24	X25	Y25	Z25
																																																																												
355	3.54	-217.4977875	1526.960571	716.190918	-266.3048706	1355.800659	648.1112061	-104.4169159	1497.45874	722.507019	-215.5364838	1594.703857	519.595459	-161.728653	1494.400391	718.7475586	6.603473186	1771.069458	485.4356079	-164.8767853	1513.21106	751.4378052	-157.5548706	1557.120728	339.2202454	-202.0224304	1725.661011	462.7304382	-243.5715485	1490.033081	713.3790283	-6.551067352	1770.972046	580.2254028	-160.0915985	1558.642944	689.6815186	-171.3858185	1233.882568	852.2109985	-116.2686157	1179.460327	758.0380859	-203.7927551	1727.040527	578.4337158	-219.6425629	1338.809204	759.7026978	-53.17769241	1505.497681	522.0427246	5.369356155	1332.33667	523.1448364	-269.3353577	1497.448608	605.5837402	-233.8455658	1306.635498	517.1345215	-143.8272171	1206.671448	805.1245422	-114.2381048	1319.486084	520.139679	-134.3570881	1550.100769	520.8190918	-202.9075928	1726.350769	520.582077	-251.0460052	1460.069946	656.6286214
356	3.55	-217.4616699	1526.958618	716.170166	-266.2857056	1355.83252	648.1021729	-104.4070969	1497.495972	722.4864502	-215.5375824	1594.709473	519.5952759	-161.7181244	1494.459717	718.7402954	6.476729393	1770.997925	485.3468018	-164.8435211	1513.223877	751.3466797	-157.5225983	1557.086548	339.1376648	-201.961731	1725.724609	462.6918335	-243.5636902	1490.123657	713.3905029	-6.439972401	1770.988647	580.1613159	-160.0818787	1558.70874	689.6151123	-171.3596954	1233.938599	852.2015991	-116.2443542	1179.504517	758.0392456	-203.8213654	1727.042603	578.3977661	-219.6851959	1338.860107	759.7236938	-53.19770432	1505.466064	521.9915161	5.371221542	1332.317871	523.1311646	-269.2966614	1497.481934	605.5603638	-233.8870239	1306.666138	517.1075439	-143.8020248	1206.721558	805.1204224	-114.2579012	1319.492004	520.1193542	-134.3676434	1550.087769	520.793396	-202.8915482	1726.383606	520.5447998	-251.014679	1460.091024	656.6109009
357	3.56	-217.4586487	1527.041626	716.118103	-266.332428	1355.866333	648.0756226	-104.411377	1497.550537	722.4375	-215.5438538	1594.695435	519.500061	-161.6833191	1494.500977	718.7053223	6.630558968	1771.067261	485.3911438	-164.8051758	1513.245728	751.2944946	-157.5095978	1557.080811	339.0701904	-201.9553375	1725.723389	462.5780334	-243.5382538	1490.142334	713.3710938	-6.509821892	1770.996216	580.098999	-160.0715637	1558.796021	689.5062866	-171.3530731	1234.000488	852.2017822	-116.2846451	1179.525635	758.0010986	-203.8060455	1727.089478	578.3348999	-219.6763611	1338.870972	759.6692505	-53.18883514	1505.49939	521.9240723	5.406353474	1332.371338	523.1322632	-269.3308411	1497.501465	605.5255737	-233.8329926	1306.681763	517.0745239	-143.8188591	1206.763062	805.1014404	-114.2133195	1319.52655	520.1033936	-134.3663445	1550.097412	520.7120667	-202.8806915	1726.406433	520.4564667	-251.0406392	1460.136475	656.5730998
358	3.57	-217.4147797	1527.052612	715.9880371	-266.2884521	1355.858276	648.0479736	-104.380188	1497.61792	722.3596802	-215.5582733	1594.700439	519.4417114	-161.6723328	1494.559082	718.6195679	6.679377556	1771.11377	485.359314	-164.8061523	1513.372437	751.237915	-157.5437164	1557.085693	339.036438	-201.9899902	1725.746826	462.4908752	-243.5441589	1490.187988	713.2748413	-6.469281197	1770.977051	580.0230103	-160.1731415	1558.983887	689.3566895	-171.3311462	1234.084351	852.1482544	-116.2802277	1179.616821	757.9492188	-203.8382568	1727.076294	578.2427368	-219.6327515	1338.911499	759.7009277	-53.15848541	1505.527588	521.8041382	5.37059021	1332.353638	523.0996704	-269.3560486	1497.501709	605.4343872	-233.8798676	1306.660278	517.0480347	-143.805687	1206.850586	805.0487366	-114.2546387	1319.506958	520.0738525	-134.3583794	1550.114014	520.6229248	-202.9141235	1726.41156	520.366806	-251.0197601	1460.137533	656.4901326
359	3.58	-217.4433594	1527.226318	715.9034424	-266.2546082	1355.902954	648.0352783	-104.3740005	1497.689819	722.3395996	-215.5861816	1594.743408	519.3491211	-161.67836	1494.641968	718.6156616	6.601400375	1771.088745	485.2387695	-164.7972565	1513.508423	751.1686401	-157.5407257	1557.060913	338.9228821	-201.979599	1725.759155	462.4251404	-243.5708771	1490.286255	713.2939453	-6.443010807	1770.969849	580.0040283	-160.1785583	1558.995239	689.2640381	-171.2566376	1234.14856	852.1134033	-116.277832	1179.679565	757.930542	-203.8208008	1727.103394	578.1766968	-219.5850525	1338.912109	759.6790161	-53.17789078	1505.548584	521.7374878	5.419745445	1332.425049	523.046875	-269.3619995	1497.532471	605.3916016	-233.871109	1306.635864	516.9837036	-143.7672348	1206.914062	805.0219727	-114.2256818	1319.530457	520.0152893	-134.3820362	1550.145996	520.5433044	-202.9001999	1726.431274	520.3009186	-251.019989	1460.220581	656.4434408
360	3.59	-217.471817	1527.194458	715.862854	-266.2542114	1355.918945	648.0397949	-104.3839798	1497.724731	722.2978516	-215.621109	1594.736572	519.312561	-161.6710663	1494.676147	718.565918	6.628447533	1771.08667	485.1943359	-164.8012543	1513.64978	751.1170044	-157.5113983	1557.004517	338.8896179	-201.9628448	1725.801025	462.3027344	-243.5457458	1490.319336	713.2322388	-6.42802763	1771.001221	579.8966675	-160.1893311	1559.038574	689.220459	-171.2382355	1234.188599	852.0928345	-116.2328262	1179.723145	757.8896484	-203.8911896	1727.116699	578.1098633	-219.6207275	1338.99231	759.6500244	-53.20130539	1505.590942	521.6768188	5.407913685	1332.447388	523.0765991	-269.3522339	1497.55542	605.3301392	-233.8727112	1306.654419	516.9885254	-143.7355309	1206.955872	804.9912415	-114.2323987	1319.550903	520.0325623	-134.4112072	1550.163757	520.4946899	-202.9270172	1726.458862	520.2062988	-251.0260874	1460.222941	656.4109294
361	3.6	-217.428772	1527.308716	715.7360229	-266.2853394	1355.932739	648.0045776	-104.3954926	1497.814087	722.2667847	-215.6420288	1594.726563	519.21875	-161.6817322	1494.750366	718.5360718	6.700084209	1771.064331	485.2385254	-164.8129425	1513.667358	751.0814819	-157.5446472	1557.009766	338.8537903	-201.9575958	1725.796997	462.2388611	-243.5995789	1490.369263	713.2011719	-6.450169563	1771.001709	579.8552246	-160.2579041	1559.157593	689.0944824	-171.2107391	1234.300415	852.0855103	-116.2776718	1179.745117	757.8543091	-203.8412323	1727.103638	578.0250244	-219.5458221	1339.123291	759.6067505	-53.21336365	1505.586792	521.6540527	5.418951988	1332.496704	523.0519409	-269.3798218	1497.563354	605.2387085	-233.7839966	1306.606567	516.987854	-143.7442055	1207.022766	804.9699097	-114.1825223	1319.551636	520.0198975	-134.4276962	1550.156677	520.4364014	-202.8994141	1726.450317	520.1319427	-251.031311	1460.26827	656.3264364
362	3.61	-217.4129028	1527.33252	715.6756592	-266.2784424	1355.96106	648.0001221	-104.428566	1497.855713	722.2454224	-215.657547	1594.713989	519.1253052	-161.7230682	1494.789185	718.5112915	6.622119904	1771.039307	485.1179199	-164.8587036	1513.767822	751.0374756	-157.5277405	1556.993896	338.7376404	-202.0273438	1725.808838	462.1195679	-243.564621	1490.408813	713.1773682	-6.412689686	1771.076172	579.7380981	-160.3018036	1559.2677	689.012146	-171.2502899	1234.388794	852.0198364	-116.2238846	1179.82605	757.8668213	-203.943161	1727.154053	577.9234009	-219.6291962	1339.202881	759.5996704	-53.20985794	1505.616455	521.5927124	5.415604591	1332.518311	523.0456543	-269.3707886	1497.592773	605.2330933	-233.8239746	1306.618286	516.9560547	-143.7370872	1207.107422	804.9433289	-114.204185	1319.568298	520.0008545	-134.4337025	1550.165222	520.3590088	-202.9852524	1726.481445	520.0214844	-251.0207113	1460.295451	656.3029582
363	3.62	-217.4845123	1527.295898	715.605957	-266.2397766	1355.993652	647.977356	-104.4466934	1497.898926	722.2220459	-215.7032471	1594.719727	519.0353394	-161.7458344	1494.852173	718.4676514	6.670958519	1771.085815	485.0860901	-164.880188	1513.745361	750.9715576	-157.5244904	1556.968262	338.6815796	-202.0806885	1725.879639	461.9911804	-243.6090698	1490.499146	713.1038208	-6.457324505	1771.077637	579.6544189	-160.3183899	1559.296265	688.9152832	-171.2433929	1234.438354	852.0116577	-116.2145538	1179.850342	757.8235474	-203.9316101	1727.148438	577.8074341	-219.6678925	1339.213501	759.5670776	-53.27443314	1505.640869	521.5325928	5.426728725	1332.533936	522.9963989	-269.4116211	1497.596191	605.1459961	-233.8238373	1306.61853	516.9560547	-143.7289734	1207.144348	804.9176025	-114.1985543	1319.576233	519.9762268	-134.4888401	1550.180298	520.2839661	-203.0061493	1726.514038	519.8993073	-251.0453033	1460.295247	656.243103
364	3.63	-217.5597839	1527.333374	715.5927124	-266.3048096	1356.080322	647.9604492	-104.4470291	1497.966797	722.1700439	-215.725708	1594.711792	518.9432983	-161.7903137	1494.897461	718.4170532	6.554365158	1771.066406	484.9905701	-164.9312897	1513.816895	750.9358521	-157.5077057	1556.933716	338.6177063	-202.0685883	1725.855835	461.8728943	-243.6305847	1490.516724	713.0608521	-6.41900301	1771.151123	579.5393677	-160.3770447	1559.366577	688.8424683	-171.2726288	1234.46814	851.9816895	-116.1668854	1179.88855	757.8439941	-204.0031891	1727.145874	577.7376709	-219.6113434	1339.228516	759.5354004	-53.27111816	1505.663086	521.5291748	5.470444679	1332.539063	523.0220337	-269.4255066	1497.600708	605.1496582	-233.8639679	1306.630005	516.9241943	-143.7197571	1207.178345	804.9128418	-114.1967616	1319.584534	519.973114	-134.4984131	1550.187439	520.2362366	-203.0358887	1726.500854	519.8052826	-251.0967	1460.338135	656.2342733
365	3.64	-217.5557098	1527.367188	715.5385132	-266.2901306	1356.019531	647.9455566	-104.5060883	1497.992798	722.1478882	-215.7509155	1594.706665	518.8869629	-161.8395386	1494.904663	718.3934937	6.676337719	1771.035034	485.0288696	-164.9908447	1513.874268	750.9135132	-157.5689087	1556.893311	338.5884705	-202.1036224	1725.862915	461.7844849	-243.6813812	1490.49646	713.0340576	-6.463085175	1771.151978	579.4570313	-160.4176636	1559.449341	688.7680664	-171.2691956	1234.51416	851.979248	-115.2920074	1179.859863	758.1555176	-204.0305328	1727.182007	577.6449585	-219.5935059	1339.254028	759.4710693	-53.32600784	1505.694092	521.4553833	5.423810005	1332.578979	523.0197144	-269.4683838	1497.608032	605.0778809	-233.8618011	1306.572998	516.8652344	-143.2806015	1207.187012	805.0673828	-114.2189956	1319.575989	519.9424744	-134.5384617	1550.200378	520.1711731	-203.0670776	1726.522461	519.7147217	-251.1047414	1460.331584	656.1873169
366	3.65	-217.6266022	1527.333252	715.4682007	-266.315094	1356.001465	647.9074707	-104.5225906	1498.015137	722.1224365	-215.8086548	1594.69165	518.824585	-161.8506317	1494.928711	718.3666992	6.38162899	1771.070557	484.7869873	-165.0012207	1513.887451	750.87854	-157.5527344	1556.897949	338.522583	-202.1416321	1725.818237	461.6947327	-243.7289581	1490.520874	713.0026245	-6.6340909	1771.193848	579.4399414	-160.5068817	1559.567993	688.6556396	-171.2363281	1234.588257	851.9141235	-115.2932205	1179.908813	758.1333008	-204.1362762	1727.205078	577.5427246	-219.634613	1339.281982	759.4429932	-53.30164337	1505.687256	521.4309692	5.42235136	1332.599854	522.9940796	-269.5272217	1497.593872	604.9888916	-233.8621216	1306.572266	516.8652344	-143.2647743	1207.248535	805.0237122	-114.2198851	1319.58606	519.929657	-134.5551491	1550.189453	520.1277771	-203.1389542	1726.511658	519.6187286	-251.1563059	1460.30953	656.121521
